<?xml version="1.0" encoding="utf-8"?>
<!-- Generator: Adobe Illustrator 28.3.0, SVG Export Plug-In . SVG Version: 6.00 Build 0)  -->
<svg version="1.1" id="Layer_1" xmlns="http://www.w3.org/2000/svg" xmlns:xlink="http://www.w3.org/1999/xlink" x="0px" y="0px"
	 viewBox="0 0 24 24" style="enable-background:new 0 0 24 24;" xml:space="preserve">
<style type="text/css">
	.st0{fill:#F2F2F2;}
</style>
<path class="st0" d="M12,20c-0.6,0-1-0.2-1.4-0.6S10,18.5,10,18s0.2-1,0.6-1.4S11.4,16,12,16s1,0.2,1.4,0.6S14,17.5,14,18
	s-0.2,1-0.6,1.4S12.6,20,12,20z M12,14c-0.6,0-1-0.2-1.4-0.6S10,12.6,10,12s0.2-1,0.6-1.4S11.4,10,12,10s1,0.2,1.4,0.6
	S14,11.4,14,12s-0.2,1-0.6,1.4S12.6,14,12,14z M12,8c-0.6,0-1-0.2-1.4-0.6C10.2,7,10,6.5,10,6s0.2-1,0.6-1.4C11,4.2,11.4,4,12,4
	s1,0.2,1.4,0.6C13.8,5,14,5.4,14,6s-0.2,1-0.6,1.4C13,7.8,12.6,8,12,8z"/>
</svg>
