<?xml version="1.0" encoding="utf-8"?>
<!-- Generator: Adobe Illustrator 28.3.0, SVG Export Plug-In . SVG Version: 6.00 Build 0)  -->
<svg version="1.1" id="Layer_1" xmlns="http://www.w3.org/2000/svg" xmlns:xlink="http://www.w3.org/1999/xlink" x="0px" y="0px"
	 viewBox="0 0 24 24" style="enable-background:new 0 0 24 24;" xml:space="preserve">
<style type="text/css">
	.st0{fill:#F2F2F2;}
</style>
<path class="st0" d="M12,22c-0.4,0-0.8-0.1-1.2-0.3c-0.3-0.2-0.6-0.5-0.8-0.8c-0.6,0-1-0.2-1.4-0.6C8.2,19.9,8,19.4,8,18.9v-3.6
	c-1-0.7-1.8-1.5-2.4-2.6s-0.9-2.2-0.9-3.5c0-2,0.7-3.7,2.1-5.1S10,2,12,2s3.7,0.7,5.1,2.1s2.1,3.1,2.1,5.1c0,1.3-0.3,2.4-0.9,3.5
	S17,14.6,16,15.3v3.6c0,0.5-0.2,1-0.6,1.4c-0.4,0.4-0.9,0.6-1.4,0.6c-0.2,0.4-0.5,0.6-0.8,0.8S12.4,22,12,22z M10,18.9h4V18h-4V18.9
	z M10,17h4v-1h-4V17z M9.8,14h1.4v-2.7L9.1,9.1l1.1-1L12,9.9l1.9-1.9l1,1l-2.2,2.2V14h1.4c0.9-0.4,1.6-1.1,2.2-1.9
	c0.6-0.8,0.9-1.8,0.9-2.8c0-1.5-0.5-2.7-1.5-3.7S13.5,4,12,4S9.3,4.5,8.3,5.5S6.8,7.8,6.8,9.2c0,1.1,0.3,2,0.8,2.8
	C8.2,12.9,8.9,13.6,9.8,14z"/>
</svg>
