<?xml version="1.0" encoding="utf-8"?>
<!-- Generator: Adobe Illustrator 28.3.0, SVG Export Plug-In . SVG Version: 6.00 Build 0)  -->
<svg version="1.1" id="Layer_1" xmlns="http://www.w3.org/2000/svg" xmlns:xlink="http://www.w3.org/1999/xlink" x="0px" y="0px"
	 viewBox="0 0 24 24" style="enable-background:new 0 0 24 24;" xml:space="preserve">
<path d="M2,23v-2h20v2H2z M4,20v-6c-0.5-0.9-1-1.9-1.3-2.9s-0.5-2-0.5-3.1c0-1,0.1-2,0.4-3s0.6-2,0.9-2.9c0.1-0.3,0.3-0.6,0.6-0.8
	S4.9,1,5.2,1c0.5,0,1,0.2,1.3,0.5C6.9,1.9,7.1,2.3,7,2.8L6.7,5c-0.1,0.8,0,1.6,0.2,2.3S7.5,8.7,8,9.2s1.1,1,1.8,1.3
	c0.7,0.3,1.4,0.5,2.2,0.5c1,0,2,0.1,3,0.3c1,0.2,1.9,0.5,2.6,0.9s1.3,0.9,1.7,1.5c0.4,0.6,0.6,1.3,0.6,2.2V20H4z M6,18h12v-2.2
	c0-0.4-0.1-0.8-0.3-1.1c-0.2-0.3-0.5-0.6-0.9-0.7c-0.7-0.3-1.5-0.6-2.4-0.8C13.6,13.1,12.8,13,12,13c-1.1,0-2.1-0.2-3.1-0.7
	s-1.7-1.1-2.4-1.8C5.9,9.8,5.4,8.9,5.1,7.9c-0.3-1-0.4-2-0.3-3.1c-0.2,0.5-0.3,1-0.4,1.6C4.3,7,4.3,7.5,4.3,8.1c0,1,0.2,1.9,0.5,2.8
	c0.3,0.9,0.7,1.8,1.2,2.6V18z M12,10c-1.1,0-2-0.4-2.8-1.2S8,7.1,8,6s0.4-2,1.2-2.8S10.9,2,12,2s2,0.4,2.8,1.2S16,4.9,16,6
	s-0.4,2-1.2,2.8S13.1,10,12,10z M12,8c0.6,0,1-0.2,1.4-0.6C13.8,7,14,6.5,14,6s-0.2-1-0.6-1.4C13,4.2,12.6,4,12,4s-1,0.2-1.4,0.6
	C10.2,5,10,5.4,10,6s0.2,1,0.6,1.4C11,7.8,11.4,8,12,8z M8,20v-0.9C8,18,8.4,17,9.2,16.2C9.9,15.4,10.9,15,12,15h4v2h-4
	c-0.6,0-1,0.2-1.4,0.6C10.2,18,10,18.5,10,19.1V20H8z"/>
</svg>
